<svg width="421*.5" height="147*.5" viewBox="0 0 421 147" fill="none" xmlns="http://www.w3.org/2000/svg">
<path d="M43.588 80V51.53H50.959C52.805 51.53 54.391 51.881 55.717 52.583C57.069 53.285 58.109 54.273 58.837 55.547C59.591 56.821 59.968 58.329 59.968 60.071V71.42C59.968 73.162 59.591 74.683 58.837 75.983C58.109 77.257 57.069 78.245 55.717 78.947C54.391 79.649 52.805 80 50.959 80H43.588ZM47.098 76.88H50.959C52.675 76.88 54.014 76.399 54.976 75.437C55.964 74.475 56.458 73.136 56.458 71.42V60.071C56.458 58.381 55.964 57.055 54.976 56.093C54.014 55.131 52.675 54.65 50.959 54.65H47.098V76.88ZM73.2128 80.39C70.9508 80.39 69.1698 79.818 67.8698 78.674C66.5698 77.504 65.9198 75.931 65.9198 73.955C65.9198 71.953 66.5698 70.38 67.8698 69.236C69.1698 68.092 70.9248 67.52 73.1348 67.52H79.7648V65.375C79.7648 64.049 79.3618 63.035 78.5558 62.333C77.7758 61.605 76.6578 61.241 75.2018 61.241C73.9278 61.241 72.8618 61.514 72.0038 62.06C71.1458 62.58 70.6518 63.295 70.5218 64.205H67.0118C67.2458 62.359 68.1168 60.89 69.6248 59.798C71.1328 58.706 73.0178 58.16 75.2798 58.16C77.7498 58.16 79.6998 58.797 81.1298 60.071C82.5598 61.345 83.2748 63.074 83.2748 65.258V80H79.8428V75.905H79.2578L79.8428 75.32C79.8428 76.88 79.2318 78.115 78.0098 79.025C76.8138 79.935 75.2148 80.39 73.2128 80.39ZM74.0708 77.621C75.7348 77.621 77.0998 77.205 78.1658 76.373C79.2318 75.541 79.7648 74.475 79.7648 73.175V70.133H73.2128C72.0428 70.133 71.1198 70.458 70.4438 71.108C69.7678 71.758 69.4298 72.642 69.4298 73.76C69.4298 74.956 69.8328 75.905 70.6388 76.607C71.4708 77.283 72.6148 77.621 74.0708 77.621ZM96.0905 80L88.9145 58.55H92.5025L97.2605 72.98C97.5465 73.838 97.8065 74.67 98.0405 75.476C98.2745 76.256 98.4435 76.867 98.5475 77.309C98.6775 76.867 98.8595 76.256 99.0935 75.476C99.3275 74.67 99.5745 73.838 99.8345 72.98L104.476 58.55H108.025L100.849 80H96.0905ZM113.469 80V76.802H121.074V61.748H114.444V58.55H124.584V76.802H131.799V80H113.469ZM122.439 54.689C121.581 54.689 120.905 54.468 120.411 54.026C119.917 53.584 119.67 52.986 119.67 52.232C119.67 51.452 119.917 50.841 120.411 50.399C120.905 49.931 121.581 49.697 122.439 49.697C123.297 49.697 123.973 49.931 124.467 50.399C124.961 50.841 125.208 51.452 125.208 52.232C125.208 52.986 124.961 53.584 124.467 54.026C123.973 54.468 123.297 54.689 122.439 54.689ZM143.991 80.39C141.859 80.39 140.13 79.675 138.804 78.245C137.504 76.815 136.854 74.878 136.854 72.434V66.155C136.854 63.685 137.504 61.735 138.804 60.305C140.104 58.875 141.833 58.16 143.991 58.16C145.759 58.16 147.176 58.641 148.242 59.603C149.308 60.565 149.841 61.852 149.841 63.464L149.139 62.645H149.919L149.841 57.77V51.53H153.351V80H149.841V75.905H149.139L149.841 75.086C149.841 76.724 149.308 78.024 148.242 78.986C147.176 79.922 145.759 80.39 143.991 80.39ZM145.161 77.348C146.617 77.348 147.761 76.893 148.593 75.983C149.425 75.073 149.841 73.812 149.841 72.2V66.35C149.841 64.738 149.425 63.477 148.593 62.567C147.761 61.657 146.617 61.202 145.161 61.202C143.679 61.202 142.509 61.644 141.651 62.528C140.793 63.412 140.364 64.686 140.364 66.35V72.2C140.364 73.864 140.793 75.138 141.651 76.022C142.509 76.906 143.679 77.348 145.161 77.348ZM190.839 80.39C188.109 80.39 185.964 79.623 184.404 78.089C182.844 76.555 182.064 74.462 182.064 71.81H185.574C185.574 73.552 186.029 74.904 186.939 75.866C187.875 76.802 189.175 77.27 190.839 77.27C192.503 77.27 193.79 76.802 194.7 75.866C195.636 74.904 196.104 73.552 196.104 71.81V54.728H189.279V51.53H199.614V71.81C199.614 74.462 198.821 76.555 197.235 78.089C195.675 79.623 193.543 80.39 190.839 80.39ZM215.354 80.39C212.884 80.39 210.908 79.662 209.426 78.206C207.944 76.724 207.203 74.722 207.203 72.2V58.55H210.713V72.2C210.713 73.812 211.129 75.073 211.961 75.983C212.793 76.867 213.924 77.309 215.354 77.309C216.81 77.309 217.954 76.867 218.786 75.983C219.644 75.073 220.073 73.812 220.073 72.2V58.55H223.583V72.2C223.583 74.722 222.829 76.724 221.321 78.206C219.813 79.662 217.824 80.39 215.354 80.39ZM237.53 80.39C235.398 80.39 233.669 79.675 232.343 78.245C231.043 76.815 230.393 74.878 230.393 72.434V66.155C230.393 63.685 231.043 61.735 232.343 60.305C233.643 58.875 235.372 58.16 237.53 58.16C239.298 58.16 240.715 58.641 241.781 59.603C242.847 60.565 243.38 61.852 243.38 63.464L242.678 62.645H243.458L243.38 57.77V51.53H246.89V80H243.38V75.905H242.678L243.38 75.086C243.38 76.724 242.847 78.024 241.781 78.986C240.715 79.922 239.298 80.39 237.53 80.39ZM238.7 77.348C240.156 77.348 241.3 76.893 242.132 75.983C242.964 75.073 243.38 73.812 243.38 72.2V66.35C243.38 64.738 242.964 63.477 242.132 62.567C241.3 61.657 240.156 61.202 238.7 61.202C237.218 61.202 236.048 61.644 235.19 62.528C234.332 63.412 233.903 64.686 233.903 66.35V72.2C233.903 73.864 234.332 75.138 235.19 76.022C236.048 76.906 237.218 77.348 238.7 77.348ZM254.168 80V51.53H257.678V67.403H261.812L268.052 58.55H272.069L264.854 68.768L272.186 80H268.091L261.851 70.445H257.678V80H254.168ZM277.163 80V76.802H284.768V61.748H278.138V58.55H288.278V76.802H295.493V80H277.163ZM286.133 54.689C285.275 54.689 284.599 54.468 284.105 54.026C283.611 53.584 283.364 52.986 283.364 52.232C283.364 51.452 283.611 50.841 284.105 50.399C284.599 49.931 285.275 49.697 286.133 49.697C286.991 49.697 287.667 49.931 288.161 50.399C288.655 50.841 288.902 51.452 288.902 52.232C288.902 52.986 288.655 53.584 288.161 54.026C287.667 54.468 286.991 54.689 286.133 54.689ZM300.82 80V58.55H304.33V62.645H305.071L304.33 63.464C304.33 61.774 304.837 60.474 305.851 59.564C306.865 58.628 308.269 58.16 310.063 58.16C312.221 58.16 313.937 58.823 315.211 60.149C316.485 61.475 317.122 63.282 317.122 65.57V80H313.612V65.96C313.612 64.426 313.196 63.256 312.364 62.45C311.558 61.618 310.453 61.202 309.049 61.202C307.593 61.202 306.436 61.644 305.578 62.528C304.746 63.412 304.33 64.686 304.33 66.35V80H300.82ZM331.654 80.312C330.198 80.312 328.924 80.091 327.832 79.649C326.766 79.181 325.908 78.531 325.258 77.699C324.634 76.867 324.257 75.879 324.127 74.735H327.637C327.793 75.489 328.209 76.087 328.885 76.529C329.587 76.971 330.51 77.192 331.654 77.192H333.292C334.67 77.192 335.697 76.919 336.373 76.373C337.049 75.801 337.387 75.047 337.387 74.111C337.387 73.201 337.075 72.486 336.451 71.966C335.853 71.42 334.956 71.056 333.76 70.874L330.874 70.406C328.768 70.042 327.195 69.392 326.155 68.456C325.141 67.494 324.634 66.103 324.634 64.283C324.634 62.359 325.245 60.877 326.467 59.837C327.689 58.771 329.522 58.238 331.966 58.238H333.448C335.502 58.238 337.153 58.719 338.401 59.681C339.649 60.643 340.403 61.943 340.663 63.581H337.153C336.997 62.905 336.607 62.372 335.983 61.982C335.359 61.566 334.514 61.358 333.448 61.358H331.966C330.64 61.358 329.665 61.605 329.041 62.099C328.443 62.593 328.144 63.334 328.144 64.322C328.144 65.206 328.404 65.856 328.924 66.272C329.444 66.688 330.263 66.987 331.381 67.169L334.267 67.637C336.581 68.001 338.258 68.677 339.298 69.665C340.364 70.653 340.897 72.083 340.897 73.955C340.897 75.931 340.26 77.491 338.986 78.635C337.738 79.753 335.84 80.312 333.292 80.312H331.654Z" fill="black"/>
<path d="M44.235 104V94.497H49.825V95.563H45.379V98.722H49.487V99.788H45.405V104H44.235ZM54.6819 104.13C53.8586 104.13 53.1999 103.887 52.7059 103.402C52.2119 102.908 51.9649 102.241 51.9649 101.4V96.85H53.1349V101.4C53.1349 101.937 53.2736 102.358 53.5509 102.661C53.8283 102.956 54.2053 103.103 54.6819 103.103C55.1673 103.103 55.5486 102.956 55.8259 102.661C56.1119 102.358 56.2549 101.937 56.2549 101.4V96.85H57.4249V101.4C57.4249 102.241 57.1736 102.908 56.6709 103.402C56.1683 103.887 55.5053 104.13 54.6819 104.13ZM63.4648 104C63.0488 104 62.6848 103.918 62.3728 103.753C62.0608 103.588 61.8182 103.354 61.6448 103.051C61.4715 102.748 61.3848 102.392 61.3848 101.985V95.576H58.9798V94.51H62.5548V101.985C62.5548 102.28 62.6372 102.514 62.8018 102.687C62.9665 102.852 63.1875 102.934 63.4648 102.934H65.7398V104H63.4648ZM71.2598 104C70.8438 104 70.4798 103.918 70.1678 103.753C69.8558 103.588 69.6131 103.354 69.4398 103.051C69.2664 102.748 69.1798 102.392 69.1798 101.985V95.576H66.7748V94.51H70.3498V101.985C70.3498 102.28 70.4321 102.514 70.5968 102.687C70.7614 102.852 70.9824 102.934 71.2598 102.934H73.5348V104H71.2598ZM85.9266 104.13C85.3026 104.13 84.7653 104.026 84.3146 103.818C83.8726 103.61 83.5303 103.311 83.2876 102.921C83.0449 102.531 82.9193 102.067 82.9106 101.53H84.0806C84.0806 102.007 84.2409 102.384 84.5616 102.661C84.8909 102.938 85.3459 103.077 85.9266 103.077C86.4726 103.077 86.8973 102.943 87.2006 102.674C87.5126 102.405 87.6686 102.033 87.6686 101.556C87.6686 101.175 87.5646 100.841 87.3566 100.555C87.1573 100.269 86.8669 100.07 86.4856 99.957L85.1986 99.554C84.5486 99.3547 84.0459 99.021 83.6906 98.553C83.3439 98.085 83.1706 97.5347 83.1706 96.902C83.1706 96.3907 83.2833 95.9487 83.5086 95.576C83.7426 95.1947 84.0676 94.9 84.4836 94.692C84.8996 94.4753 85.3893 94.367 85.9526 94.367C86.7846 94.367 87.4519 94.601 87.9546 95.069C88.4573 95.5283 88.7129 96.1437 88.7216 96.915H87.5516C87.5516 96.447 87.4086 96.083 87.1226 95.823C86.8453 95.5543 86.4509 95.42 85.9396 95.42C85.4369 95.42 85.0426 95.5413 84.7566 95.784C84.4793 96.0267 84.3406 96.3647 84.3406 96.798C84.3406 97.188 84.4446 97.526 84.6526 97.812C84.8606 98.098 85.1596 98.3017 85.5496 98.423L86.8496 98.839C87.4823 99.0383 87.9719 99.3763 88.3186 99.853C88.6653 100.33 88.8386 100.889 88.8386 101.53C88.8386 102.05 88.7173 102.505 88.4746 102.895C88.2319 103.285 87.8896 103.588 87.4476 103.805C87.0143 104.022 86.5073 104.13 85.9266 104.13ZM94.4495 104C93.8342 104 93.3532 103.835 93.0065 103.506C92.6685 103.177 92.4995 102.713 92.4995 102.115V97.916H90.4845V96.85H92.4995V94.835H93.6695V96.85H96.5295V97.916H93.6695V102.115C93.6695 102.661 93.9295 102.934 94.4495 102.934H96.3995V104H94.4495ZM100.84 104.13C100.086 104.13 99.4928 103.939 99.0595 103.558C98.6261 103.168 98.4095 102.644 98.4095 101.985C98.4095 101.318 98.6261 100.793 99.0595 100.412C99.4928 100.031 100.078 99.84 100.814 99.84H103.024V99.125C103.024 98.683 102.89 98.345 102.621 98.111C102.361 97.8683 101.989 97.747 101.503 97.747C101.079 97.747 100.723 97.838 100.437 98.02C100.151 98.1933 99.9868 98.4317 99.9435 98.735H98.7735C98.8515 98.1197 99.1418 97.63 99.6445 97.266C100.147 96.902 100.775 96.72 101.529 96.72C102.353 96.72 103.003 96.9323 103.479 97.357C103.956 97.7817 104.194 98.358 104.194 99.086V104H103.05V102.635H102.855L103.05 102.44C103.05 102.96 102.847 103.372 102.439 103.675C102.041 103.978 101.508 104.13 100.84 104.13ZM101.126 103.207C101.681 103.207 102.136 103.068 102.491 102.791C102.847 102.514 103.024 102.158 103.024 101.725V100.711H100.84C100.45 100.711 100.143 100.819 99.9175 101.036C99.6921 101.253 99.5795 101.547 99.5795 101.92C99.5795 102.319 99.7138 102.635 99.9825 102.869C100.26 103.094 100.641 103.207 101.126 103.207ZM109.311 104.13C108.739 104.13 108.237 104.022 107.803 103.805C107.379 103.588 107.049 103.276 106.815 102.869C106.581 102.453 106.464 101.963 106.464 101.4V99.45C106.464 98.878 106.581 98.3883 106.815 97.981C107.049 97.5737 107.379 97.2617 107.803 97.045C108.237 96.8283 108.739 96.72 109.311 96.72C110.135 96.72 110.798 96.941 111.3 97.383C111.803 97.825 112.067 98.4273 112.093 99.19H110.923C110.897 98.7307 110.741 98.3797 110.455 98.137C110.178 97.8857 109.797 97.76 109.311 97.76C108.8 97.76 108.393 97.9073 108.089 98.202C107.786 98.488 107.634 98.8997 107.634 99.437V101.4C107.634 101.937 107.786 102.353 108.089 102.648C108.393 102.943 108.8 103.09 109.311 103.09C109.797 103.09 110.178 102.964 110.455 102.713C110.741 102.462 110.897 102.111 110.923 101.66H112.093C112.067 102.423 111.803 103.025 111.3 103.467C110.798 103.909 110.135 104.13 109.311 104.13ZM114.389 104V94.51H115.559V99.801H116.937L119.017 96.85H120.356L117.951 100.256L120.395 104H119.03L116.95 100.815H115.559V104H114.389ZM129.94 104V94.51H132.397C133.012 94.51 133.541 94.627 133.983 94.861C134.434 95.095 134.78 95.4243 135.023 95.849C135.274 96.2737 135.4 96.7763 135.4 97.357V101.14C135.4 101.721 135.274 102.228 135.023 102.661C134.78 103.086 134.434 103.415 133.983 103.649C133.541 103.883 133.012 104 132.397 104H129.94ZM131.11 102.96H132.397C132.969 102.96 133.415 102.8 133.736 102.479C134.065 102.158 134.23 101.712 134.23 101.14V97.357C134.23 96.7937 134.065 96.3517 133.736 96.031C133.415 95.7103 132.969 95.55 132.397 95.55H131.11V102.96ZM140.439 104.13C139.876 104.13 139.382 104.017 138.957 103.792C138.541 103.567 138.216 103.25 137.982 102.843C137.757 102.427 137.644 101.946 137.644 101.4V99.45C137.644 98.8953 137.757 98.4143 137.982 98.007C138.216 97.5997 138.541 97.2833 138.957 97.058C139.382 96.8327 139.876 96.72 140.439 96.72C141.002 96.72 141.492 96.8327 141.908 97.058C142.333 97.2833 142.658 97.5997 142.883 98.007C143.117 98.4143 143.234 98.8953 143.234 99.45V100.711H138.788V101.4C138.788 101.963 138.931 102.397 139.217 102.7C139.503 102.995 139.91 103.142 140.439 103.142C140.89 103.142 141.254 103.064 141.531 102.908C141.808 102.743 141.977 102.501 142.038 102.18H143.208C143.13 102.778 142.835 103.255 142.324 103.61C141.821 103.957 141.193 104.13 140.439 104.13ZM142.09 99.931V99.45C142.09 98.8867 141.947 98.4533 141.661 98.15C141.384 97.8467 140.976 97.695 140.439 97.695C139.91 97.695 139.503 97.8467 139.217 98.15C138.931 98.4533 138.788 98.8867 138.788 99.45V99.827H142.181L142.09 99.931ZM147.441 104L145.049 96.85H146.245L147.831 101.66C147.926 101.946 148.013 102.223 148.091 102.492C148.169 102.752 148.225 102.956 148.26 103.103C148.303 102.956 148.364 102.752 148.442 102.492C148.52 102.223 148.602 101.946 148.689 101.66L150.236 96.85H151.419L149.027 104H147.441ZM156.029 104.13C155.466 104.13 154.972 104.017 154.547 103.792C154.131 103.567 153.806 103.25 153.572 102.843C153.347 102.427 153.234 101.946 153.234 101.4V99.45C153.234 98.8953 153.347 98.4143 153.572 98.007C153.806 97.5997 154.131 97.2833 154.547 97.058C154.972 96.8327 155.466 96.72 156.029 96.72C156.592 96.72 157.082 96.8327 157.498 97.058C157.923 97.2833 158.248 97.5997 158.473 98.007C158.707 98.4143 158.824 98.8953 158.824 99.45V100.711H154.378V101.4C154.378 101.963 154.521 102.397 154.807 102.7C155.093 102.995 155.5 103.142 156.029 103.142C156.48 103.142 156.844 103.064 157.121 102.908C157.398 102.743 157.567 102.501 157.628 102.18H158.798C158.72 102.778 158.425 103.255 157.914 103.61C157.411 103.957 156.783 104.13 156.029 104.13ZM157.68 99.931V99.45C157.68 98.8867 157.537 98.4533 157.251 98.15C156.974 97.8467 156.566 97.695 156.029 97.695C155.5 97.695 155.093 97.8467 154.807 98.15C154.521 98.4533 154.378 98.8867 154.378 99.45V99.827H157.771L157.68 99.931ZM164.799 104C164.383 104 164.019 103.918 163.707 103.753C163.395 103.588 163.152 103.354 162.979 103.051C162.805 102.748 162.719 102.392 162.719 101.985V95.576H160.314V94.51H163.889V101.985C163.889 102.28 163.971 102.514 164.136 102.687C164.3 102.852 164.521 102.934 164.799 102.934H167.074V104H164.799ZM171.619 104.104C171.047 104.104 170.553 103.996 170.137 103.779C169.721 103.562 169.396 103.25 169.162 102.843C168.936 102.427 168.824 101.937 168.824 101.374V99.476C168.824 98.904 168.936 98.4143 169.162 98.007C169.396 97.5997 169.721 97.2877 170.137 97.071C170.553 96.8543 171.047 96.746 171.619 96.746C172.191 96.746 172.685 96.8543 173.101 97.071C173.517 97.2877 173.837 97.5997 174.063 98.007C174.297 98.4143 174.414 98.8997 174.414 99.463V101.374C174.414 101.937 174.297 102.427 174.063 102.843C173.837 103.25 173.517 103.562 173.101 103.779C172.685 103.996 172.191 104.104 171.619 104.104ZM171.619 103.064C172.13 103.064 172.529 102.921 172.815 102.635C173.101 102.349 173.244 101.929 173.244 101.374V99.476C173.244 98.9213 173.101 98.501 172.815 98.215C172.529 97.929 172.13 97.786 171.619 97.786C171.116 97.786 170.717 97.929 170.423 98.215C170.137 98.501 169.994 98.9213 169.994 99.476V101.374C169.994 101.929 170.137 102.349 170.423 102.635C170.717 102.921 171.116 103.064 171.619 103.064ZM176.71 106.34V96.85H177.88V98.215H178.114L177.88 98.488C177.88 97.942 178.057 97.513 178.413 97.201C178.777 96.8803 179.253 96.72 179.843 96.72C180.562 96.72 181.134 96.9583 181.559 97.435C181.992 97.903 182.209 98.5487 182.209 99.372V101.465C182.209 102.011 182.109 102.483 181.91 102.882C181.719 103.281 181.446 103.588 181.091 103.805C180.744 104.022 180.328 104.13 179.843 104.13C179.262 104.13 178.79 103.97 178.426 103.649C178.062 103.328 177.88 102.899 177.88 102.362L178.114 102.635H177.854L177.88 104.26V106.34H176.71ZM179.453 103.116C179.947 103.116 180.332 102.969 180.61 102.674C180.896 102.379 181.039 101.955 181.039 101.4V99.45C181.039 98.8953 180.896 98.4707 180.61 98.176C180.332 97.8813 179.947 97.734 179.453 97.734C178.976 97.734 178.595 97.8857 178.309 98.189C178.023 98.4923 177.88 98.9127 177.88 99.45V101.4C177.88 101.937 178.023 102.358 178.309 102.661C178.595 102.964 178.976 103.116 179.453 103.116ZM187.209 104.13C186.645 104.13 186.151 104.017 185.727 103.792C185.311 103.567 184.986 103.25 184.752 102.843C184.526 102.427 184.414 101.946 184.414 101.4V99.45C184.414 98.8953 184.526 98.4143 184.752 98.007C184.986 97.5997 185.311 97.2833 185.727 97.058C186.151 96.8327 186.645 96.72 187.209 96.72C187.772 96.72 188.262 96.8327 188.678 97.058C189.102 97.2833 189.427 97.5997 189.653 98.007C189.887 98.4143 190.004 98.8953 190.004 99.45V100.711H185.558V101.4C185.558 101.963 185.701 102.397 185.987 102.7C186.273 102.995 186.68 103.142 187.209 103.142C187.659 103.142 188.023 103.064 188.301 102.908C188.578 102.743 188.747 102.501 188.808 102.18H189.978C189.9 102.778 189.605 103.255 189.094 103.61C188.591 103.957 187.963 104.13 187.209 104.13ZM188.86 99.931V99.45C188.86 98.8867 188.717 98.4533 188.431 98.15C188.153 97.8467 187.746 97.695 187.209 97.695C186.68 97.695 186.273 97.8467 185.987 98.15C185.701 98.4533 185.558 98.8867 185.558 99.45V99.827H188.951L188.86 99.931ZM192.547 104V96.85H193.691V98.215H193.964L193.587 99.06C193.587 98.2887 193.751 97.708 194.081 97.318C194.419 96.9193 194.917 96.72 195.576 96.72C196.33 96.72 196.928 96.9583 197.37 97.435C197.82 97.903 198.046 98.54 198.046 99.346V99.775H196.876V99.45C196.876 98.8867 196.737 98.4577 196.46 98.163C196.191 97.8597 195.805 97.708 195.303 97.708C194.809 97.708 194.419 97.8597 194.133 98.163C193.855 98.4663 193.717 98.8953 193.717 99.45V104H192.547Z" fill="black"/>
<line x1="208" y1="99.5" x2="340" y2="99.5" stroke="#8FD696" stroke-width="3"/>
</svg>
